<svg _ngcontent-ng-c3089240339="" xmlns="http://www.w3.org/2000/svg" width="23px" height="18px" viewBox="0 0 23 18" version="1.1"><g _ngcontent-ng-c3089240339="" stroke="none" stroke-width="1" fill="none" fill-rule="evenodd"><g _ngcontent-ng-c3089240339="" transform="translate(-136.000000, -738.000000)" fill="#111111"><g _ngcontent-ng-c3089240339="" transform="translate(73.000000, 327.000000)"><g _ngcontent-ng-c3089240339="" transform="translate(17.000000, 273.000000)"><g _ngcontent-ng-c3089240339="" transform="translate(0.000000, 134.000000)"><g _ngcontent-ng-c3089240339="" transform="translate(46.000000, 4.000000)"><path _ngcontent-ng-c3089240339="" d="M4.27864697,4.33519409 C4.03965354,4.0943324 3.92007833,3.80176715 3.92007833,3.45776185 C3.92007833,3.11375655 4.03965354,2.82140212 4.27864697,2.58048773 C4.51779739,2.33962605 4.80828404,2.2191952 5.14984527,2.2191952 C5.49145882,2.2191952 5.78189314,2.33962605 6.02088657,2.58048773 C6.26003699,2.82140212 6.3796122,3.11375655 6.3796122,3.45776185 C6.3796122,3.80176715 6.26003699,4.0943324 6.02088657,4.33519409 C5.78189314,4.57610848 5.49145882,4.6963285 5.14984527,4.6963285 C4.80828404,4.6963285 4.51779739,4.57610848 4.27864697,4.33519409 L4.27864697,4.33519409 Z M2.70297539,10.2573346 C2.7798489,10.3174183 2.86959572,10.3475128 2.97200653,10.3475128 C3.07462665,10.3475128 3.16416415,10.3174183 3.24103767,10.2573346 C3.31785885,10.1969875 3.35632177,10.0981656 3.35632177,9.96044757 L3.35632177,6.60582934 C3.35632177,6.55438929 3.38206838,6.52002566 3.43314296,6.50268572 C3.48447919,6.48560931 3.52718088,6.4769657 3.5613527,6.4769657 C3.5954722,6.4769657 3.63817389,6.48560931 3.68951012,6.50268572 C3.74058469,6.52002566 3.76638363,6.55438929 3.76638363,6.60582934 L3.76638363,14.3213617 C3.76638363,14.4762089 3.82174931,14.6052833 3.93274232,14.7084269 C4.04373532,14.8117814 4.17623617,14.8634322 4.32993087,14.8634322 C4.4836779,14.8634322 4.61612642,14.8117814 4.72711942,14.7084269 C4.83811243,14.6052833 4.89353044,14.4762089 4.89353044,14.3213617 L4.89353044,9.59910234 C4.89353044,9.51308784 4.92785925,9.45727328 4.99615057,9.43134244 C5.06438955,9.40562242 5.11572578,9.39260429 5.14984527,9.39260429 C5.18396476,9.39260429 5.23100988,9.40562242 5.29071899,9.43134244 C5.35058509,9.45727328 5.38041348,9.51308784 5.38041348,9.59910234 L5.38041348,14.3213617 C5.38041348,14.4762089 5.43583149,14.6052833 5.54703382,14.7084269 C5.65802683,14.8117814 5.79026602,14.8634322 5.94401305,14.8634322 C6.11492449,14.8634322 6.25145478,14.8117814 6.35407491,14.7084269 C6.45648571,14.6052833 6.50776961,14.4762089 6.50776961,14.3213617 L6.53335923,6.60582934 C6.53335923,6.55438929 6.55889652,6.52002566 6.61018042,6.50268572 C6.66151664,6.48560931 6.70421834,6.4769657 6.73839016,6.4769657 C6.77250965,6.4769657 6.81521134,6.48560931 6.86633825,6.50268572 C6.91762215,6.52002566 6.94321177,6.55438929 6.94321177,6.60582934 L6.94321177,9.96044757 C6.94321177,10.0981656 6.98162236,10.1969875 7.0587052,10.2573346 C7.13552638,10.3174183 7.22077278,10.3475128 7.3148107,10.3475128 C7.4086393,10.3475128 7.49409502,10.3174183 7.57096854,10.2573346 C7.64784205,10.1969875 7.68625265,10.0981656 7.68625265,9.96044757 L7.68625265,6.39954211 C7.68625265,6.05553681 7.57096854,5.74589515 7.34040032,5.47061712 C7.10977977,5.1953918 6.79804694,5.05762103 6.40514949,5.05762103 L3.71504741,5.05762103 C3.32214995,5.05762103 3.03621606,5.1953918 2.85672242,5.47061712 C2.6774381,5.74589515 2.58769128,6.05553681 2.58769128,6.39954211 L2.58769128,9.96044757 C2.58769128,10.0981656 2.6261542,10.1969875 2.70297539,10.2573346 L2.70297539,10.2573346 Z M15.9875981,0.219305354 C16.1412928,0.365667038 16.2181663,0.550556051 16.2181663,0.774130508 L16.2181663,16.1534916 C16.2181663,16.3772769 16.1412928,16.5621659 15.9875981,16.7083168 C15.833851,16.8545204 15.6457752,16.9275694 15.4237892,16.9275694 L0.794167785,16.9275694 C0.572181772,16.9275694 0.384315249,16.8545204 0.230568217,16.7083168 C0.0768735159,16.5621659 -1.02140518e-14,16.3772769 -1.02140518e-14,16.1534916 L-1.02140518e-14,0.774130508 C-1.02140518e-14,0.550556051 0.0768735159,0.365667038 0.230568217,0.219305354 C0.384315249,0.0731017847 0.572181772,-1.16270629e-13 0.794167785,-1.16270629e-13 L15.4237892,-1.16270629e-13 C15.6457752,-1.16270629e-13 15.833851,0.0731017847 15.9875981,0.219305354 L15.9875981,0.219305354 Z M1.28105083,15.6375627 L14.9371155,15.6375627 L14.9371155,1.29027022 L1.28105083,1.29027022 L1.28105083,15.6375627 Z M11.0427837,4.6963285 C11.384345,4.6963285 11.6746223,4.57610848 11.9137727,4.33519409 C12.1529231,4.0943324 12.2725507,3.80176715 12.2725507,3.45776185 C12.2725507,3.11375655 12.1529231,2.82140212 11.9137727,2.58048773 C11.6746223,2.33962605 11.384345,2.2191952 11.0427837,2.2191952 C10.7011702,2.2191952 10.4106835,2.33962605 10.1715331,2.58048773 C9.9323827,2.82140212 9.81301681,3.11375655 9.81301681,3.45776185 C9.81301681,3.80176715 9.9323827,4.0943324 10.1715331,4.33519409 C10.4106835,4.57610848 10.7011702,4.6963285 11.0427837,4.6963285 L11.0427837,4.6963285 Z M8.59591386,10.2573346 C8.67273505,10.3174183 8.76227255,10.3475128 8.86489267,10.3475128 C8.96730348,10.3475128 9.0570503,10.3174183 9.13392381,10.2573346 C9.21079733,10.1969875 9.24920792,10.0981656 9.24920792,9.96044757 L9.24920792,6.60582934 C9.24920792,6.55438929 9.27474521,6.52002566 9.32608144,6.50268572 C9.37736533,6.48560931 9.41991004,6.4769657 9.45423885,6.4769657 C9.48835834,6.4769657 9.53111237,6.48560931 9.58218694,6.50268572 C9.63352317,6.52002566 9.65906046,6.55438929 9.65906046,6.60582934 L9.65906046,14.3213617 C9.65906046,14.4762089 9.71468779,14.6052833 9.82568079,14.7084269 C9.9366738,14.8117814 10.0691223,14.8634322 10.2228693,14.8634322 C10.376564,14.8634322 10.5088032,14.8117814 10.6198486,14.7084269 C10.7309986,14.6052833 10.7864166,14.4762089 10.7864166,14.3213617 L10.7864166,9.59910234 C10.7864166,9.51308784 10.8205361,9.45727328 10.8888274,9.43134244 C10.957328,9.40562242 11.0084026,9.39260429 11.0427837,9.39260429 C11.0769032,9.39260429 11.1279778,9.40562242 11.1964784,9.43134244 C11.2647698,9.45727328 11.2988892,9.51308784 11.2988892,9.59910234 L11.2988892,14.3213617 C11.2988892,14.4762089 11.3502255,14.6052833 11.452427,14.7084269 C11.5550471,14.8117814 11.6915774,14.8634322 11.8624888,14.8634322 C12.0161835,14.8634322 12.148632,14.8117814 12.259625,14.7084269 C12.3706704,14.6052833 12.4262454,14.4762089 12.4262454,14.3213617 L12.4262454,6.60582934 C12.4262454,6.55438929 12.4515733,6.52002566 12.5031189,6.50268572 C12.5541935,6.48560931 12.5969475,6.4769657 12.631067,6.4769657 C12.6653958,6.4769657 12.7079405,6.48560931 12.7592244,6.50268572 C12.8105606,6.52002566 12.8360979,6.55438929 12.8360979,6.60582934 L12.8360979,9.96044757 C12.8360979,10.0981656 12.8745085,10.1969875 12.951382,10.2573346 C13.0282555,10.3174183 13.1180024,10.3475128 13.2204132,10.3475128 C13.3230333,10.3475128 13.4125708,10.3174183 13.489392,10.2573346 C13.5662655,10.1969875 13.6047284,10.0981656 13.6047284,9.96044757 L13.6047284,6.39954211 C13.6047284,6.05553681 13.4853102,5.74589515 13.2461598,5.47061712 C13.0070094,5.1953918 12.6909854,5.05762103 12.298088,5.05762103 L9.63352317,5.05762103 C9.24062572,5.05762103 8.95034839,5.1953918 8.76227255,5.47061712 C8.57445835,5.74589515 8.48062975,6.05553681 8.48062975,6.39954211 L8.48062975,9.96044757 C8.48062975,10.0981656 8.51904035,10.1969875 8.59591386,10.2573346 L8.59591386,10.2573346 Z M21.9297272,13.9139523 L20.7813342,13.9139523 L20.7813342,10.0565814 C20.7813342,10.0565814 20.7870906,9.89746514 20.5820597,9.89746514 L18.834273,9.89746514 C18.5470832,9.89746514 18.5975822,10.0876774 18.5975822,10.0876774 L18.5975822,13.9944328 L17.3543139,13.9944328 C16.9920822,13.9944328 17.3258985,14.3120856 17.3258985,14.3120856 L19.5313154,16.9965602 C19.5313154,16.9965602 19.7116463,17.2098572 19.9015537,17.0181693 C20.162369,16.7548553 22.0381037,14.246626 22.0381037,14.246626 C22.0381037,14.246626 22.3712921,13.9139523 21.9297272,13.9139523 L21.9297272,13.9139523 Z M17.4145987,3.42603346 L18.563044,3.42603346 L18.563044,7.28340435 C18.563044,7.28340435 18.5570783,7.44252064 18.7621093,7.44252064 L20.5101052,7.44252064 C20.7970857,7.44252064 20.7467961,7.25230842 20.7467961,7.25230842 L20.7467961,3.34555298 L21.9900643,3.34555298 C22.3520868,3.34555298 22.0184798,3.02790017 22.0184798,3.02790017 L19.8130105,0.343425544 C19.8130105,0.343425544 19.6325226,0.130128555 19.4426152,0.321816509 C19.1820093,0.585130508 17.3060652,3.09335973 17.3060652,3.09335973 C17.3060652,3.09335973 16.9728769,3.42603346 17.4145987,3.42603346 L17.4145987,3.42603346 Z"></path></g></g></g></g></g></g></svg>